PathFileType	4	(X/Y/Z)	C:\Users\WrightLab\Desktop\Jo\P1.2Trial6.trc
DataRate	CameraRate	NumFrames	NumMarkers	Units	OrigDataRate	OrigDataStartFrame	OrigNumFrames
100.00	100.00	       16	19	mm	100.00	272	       542
Frame#	Time	Headset_Front			Headset_Back			Headset_Left			Headset_Right			Left_Shoulder			Right_Shoulder			Sternum			C7			Left Elbow			Right Elbow			Left Wrist			Right Wrist			Left ASIS			Right ASIS			S2			Left Knee			Right Knee			Left Ankle			Right Ankle			
		X1	Y1	Z1	X2	Y2	Z2	X3	Y3	Z3	X4	Y4	Z4	X5	Y5	Z5	X6	Y6	Z6	X7	Y7	Z7	X8	Y8	Z8	X9	Y9	Z9	X10	Y10	Z10	X11	Y11	Z11	X12	Y12	Z12	X13	Y13	Z13	X14	Y14	Z14	X15	Y15	Z15	X16	Y16	Z16	X17	Y17	Z17	X18	Y18	Z18	X19	Y19	Z19	

272	2.710	-79.06609	1406.41077	814.65350	-136.20992	1541.69836	547.54462	-3.09306	1484.09998	633.60626	-203.68196	1439.95776	736.52808	76.99626	1273.02686	500.65955	-299.75113	1282.55127	690.27045	-63.09522	1204.94043	696.31360	-163.19173	1334.59802	492.14139	143.65935	993.27850	435.22485	-384.41925	1033.99133	699.54718	272.76514	810.52472	516.56885	-345.53281	793.54279	824.65704	55.80577	897.73132	620.22461	-201.15961	887.24396	736.38037	-204.37355	943.74390	430.19153	35.56475	456.42914	572.33313	-155.25410	505.23361	825.16144	-3.11038	107.32549	497.22333	-210.25070	170.58304	693.73663	
273	2.720	-76.02734	1402.72693	824.22351	-129.46587	1542.47583	557.94702	2.47532	1483.61304	645.41132	-199.99338	1438.28613	745.19733	83.24763	1272.27869	510.07178	-295.12717	1282.41455	696.04108	-57.82917	1204.48621	704.42914	-155.99933	1334.12219	500.17371	153.29427	993.57568	445.89099	-381.08224	1034.39709	704.88409	282.65796	812.19092	530.63287	-343.94522	793.95886	830.29810	60.60083	896.83636	628.15033	-195.01324	886.71063	744.29816	-198.94795	943.97681	437.79761	36.73177	455.11334	574.29785	-144.72302	508.26627	833.38922	-2.81799	107.48817	494.78326	-190.77573	166.33539	718.30701	
274	2.730	-73.25894	1399.70740	833.82312	-123.19979	1542.71350	568.91058	6.94289	1481.90027	656.80670	-195.79063	1436.19128	753.60266	90.03183	1271.89539	519.91095	-292.66705	1284.17261	704.24622	-52.47165	1203.69641	712.81769	-149.56134	1334.48572	506.56723	163.02499	993.53577	456.34473	-379.94000	1035.19263	709.78491	291.98148	814.02411	544.68353	-343.01144	794.29431	836.60065	64.95126	896.92090	635.32947	-189.14940	886.51685	751.82825	-195.25575	943.64337	445.15723	37.81663	454.30994	577.00262	-134.70006	510.70511	840.95996	-3.74858	106.97355	494.04834	-173.11121	163.07063	742.17834	
275	2.740	-70.22704	1396.85449	842.97546	-117.03121	1542.70410	579.32483	12.40744	1481.08301	668.44495	-191.96344	1434.34583	762.33936	96.46492	1271.10730	529.39233	-288.38031	1283.42676	710.95905	-47.62300	1202.95032	721.62042	-143.20703	1334.29956	514.68591	172.45554	993.42603	464.96567	-376.71310	1034.50049	715.50574	300.77042	815.51447	559.09351	-341.39117	794.13312	842.52118	69.41615	896.51862	641.65857	-183.63371	885.98279	761.20740	-190.63074	943.55389	452.64688	39.98675	453.11581	579.43134	-125.66908	512.03699	847.89600	-4.31635	106.00538	492.27026	-156.26956	159.90730	766.88605	
276	2.750	-67.45838	1394.00623	852.68793	-110.94252	1542.41321	589.74371	17.88589	1479.67664	680.48938	-187.93019	1433.17261	770.75311	102.41350	1270.06348	538.79407	-283.83942	1283.33826	717.22546	-43.88208	1202.35815	729.50739	-136.92107	1333.69055	522.73907	181.29643	993.11035	475.11765	-373.11526	1034.20483	720.89343	309.37164	816.60669	572.51666	-340.32520	793.79474	849.12366	72.85094	895.48584	647.95264	-178.03566	884.22748	769.83368	-186.08263	943.26953	460.05148	42.49224	452.05731	582.30353	-116.40964	512.64020	853.95776	-4.34044	105.81443	492.41995	-139.22124	157.21838	791.00726	
277	2.760	-64.54994	1391.24585	862.26495	-104.65411	1541.79834	599.73627	22.23133	1478.43787	690.93683	-184.52815	1430.71875	779.40222	108.07299	1269.21887	547.90234	-279.17419	1282.26038	724.09320	-37.84548	1200.55518	738.57941	-130.55370	1332.95288	531.46515	190.26901	992.45740	486.09613	-369.43353	1033.18591	726.50098	317.63336	817.46277	586.95496	-339.35904	792.89648	855.91205	76.82967	894.59229	654.48041	-172.04619	883.70544	778.97339	-182.08456	942.96429	467.68158	44.72318	450.26810	586.16986	-107.32162	512.44739	859.80133	-4.64603	106.11827	492.76028	-122.48415	156.21298	815.09204	
278	2.770	-61.78939	1389.05518	871.81500	-99.03185	1541.15308	610.12305	27.20773	1476.71436	702.38904	-182.08153	1429.94031	787.99609	113.76373	1267.58423	558.21002	-274.92798	1280.75378	731.64038	-33.19408	1199.41797	747.29193	-125.20998	1332.57471	539.88147	198.90076	991.96075	496.72260	-365.77216	1032.45203	732.41895	323.41714	817.69659	600.19769	-338.53720	791.64185	862.52307	80.79826	893.29376	661.12512	-167.92316	882.19421	787.01721	-177.93617	942.05334	475.21991	47.83865	449.33401	589.46503	-98.20387	511.55289	864.31348	-4.50085	106.50804	493.06567	-106.09001	155.87256	840.31732	
279	2.780	-58.82018	1386.67004	881.73871	-93.67062	1540.26807	620.42493	31.16960	1474.66089	713.52563	-178.43324	1427.51843	797.06036	119.42509	1266.26428	566.59271	-270.08127	1279.89648	739.34186	-27.49422	1197.09082	756.00330	-119.75923	1331.85620	549.34485	206.57390	991.25055	506.76547	-361.87540	1031.13379	738.89795	330.20465	818.75488	614.31091	-337.54507	790.46826	869.41418	83.26514	891.29565	667.52734	-163.43768	881.58777	797.12982	-173.66095	941.04822	483.39371	50.21933	447.02029	593.68945	-90.53158	509.84937	869.60254	-4.30051	106.69414	494.06415	-89.91703	156.89392	864.84387	
280	2.790	-56.25605	1384.37671	891.70746	-88.12640	1538.51343	630.34833	36.37795	1472.98962	724.36823	-174.09694	1426.04993	805.32831	124.39656	1265.37158	576.25165	-265.26859	1277.75146	747.44440	-22.68869	1195.60059	764.68024	-113.92282	1330.01514	558.85553	214.62994	990.98004	516.80005	-357.46405	1029.90198	745.00226	336.51648	819.16632	627.17841	-337.29102	789.04620	875.90576	87.15595	890.46497	674.59857	-158.68497	878.62836	805.61584	-169.84566	940.36456	491.58875	55.08465	446.75046	600.22565	-84.01861	507.45026	875.01331	-4.22526	106.08106	495.18481	-73.93108	158.82016	889.25610	
281	2.800	-52.51122	1382.14380	900.65112	-82.66745	1537.03369	639.97675	40.86653	1471.23889	735.07117	-169.98178	1424.06628	814.52454	129.45255	1264.01001	585.95319	-260.63528	1276.32007	755.95642	-17.53000	1193.65662	773.95160	-108.94457	1329.18945	566.79150	221.95169	990.17493	527.84131	-353.35764	1028.30591	751.86163	342.53815	819.56885	640.12140	-336.63956	787.41974	882.84668	90.22777	888.13745	681.74274	-152.94557	877.18494	815.24902	-165.25972	939.17419	499.69598	58.26184	445.17944	605.14844	-77.07172	503.95615	880.14954	-4.60023	105.50760	496.18585	-57.02013	160.80128	913.41064	
282	2.810	-50.68451	1380.51404	911.13086	-77.76394	1535.39624	649.88531	45.12796	1469.37610	745.91406	-166.28551	1422.41992	823.49573	134.36996	1262.90015	595.12390	-256.28854	1274.53259	764.73053	-14.29787	1191.68323	782.71674	-104.06359	1327.50928	576.93439	228.42300	989.48889	537.98682	-348.98508	1026.48059	758.79303	348.29453	820.11066	653.85394	-335.87488	785.35938	889.47687	93.76421	886.09064	688.38794	-147.54114	876.45215	826.19043	-161.33615	937.84100	508.01840	62.25283	443.50620	610.64844	-71.63227	500.60431	886.14203	-3.81309	105.79614	497.74078	-41.24789	164.77399	936.61731	
283	2.820	-46.78619	1378.48022	920.94843	-73.18199	1533.63916	659.77429	48.97656	1467.74048	756.02148	-162.28535	1420.65930	832.56879	139.05205	1261.54785	603.92053	-251.39728	1272.16956	773.42499	-9.73119	1189.49756	791.55139	-100.11913	1326.85278	585.72791	234.69197	988.96509	548.35529	-344.78796	1024.72095	765.87231	353.54352	820.42303	665.99054	-335.34015	783.20557	895.98102	96.85955	883.84949	697.84979	-142.76054	873.16199	835.47815	-156.77829	936.20032	517.13312	66.35405	441.50864	616.02191	-65.97800	496.59991	892.76068	-3.76072	106.26810	498.27945	-26.96144	170.30185	958.54102	
284	2.830	-44.05833	1376.78601	930.46936	-68.40164	1531.99609	669.09930	53.12010	1465.83398	766.53754	-158.90495	1418.52747	842.05084	143.01764	1260.24854	613.05896	-246.86176	1270.05408	782.95416	-4.91201	1187.86877	801.03223	-95.39350	1325.12341	595.18121	239.69727	988.27881	558.11902	-340.83875	1023.05072	773.41400	357.71051	819.70300	678.94000	-334.65091	780.52789	901.84894	99.68859	881.92175	705.66925	-137.59209	870.72260	844.00775	-152.49936	934.54962	525.96094	71.42688	439.96091	621.56427	-61.07746	493.22171	899.60999	-3.50200	106.87234	499.34760	-16.57565	175.70839	977.73553	
285	2.840	-40.44987	1374.50232	940.16486	-64.06912	1530.05530	678.68817	56.68039	1463.95374	776.75708	-155.52750	1416.73889	851.24963	147.19160	1258.86108	622.85852	-242.92720	1267.98193	792.78949	-0.09032	1186.41992	810.59772	-91.46487	1323.52161	604.83966	244.75348	987.02563	567.91046	-337.01886	1020.90210	781.33643	362.10538	819.37109	691.65454	-334.13727	778.01312	908.26440	103.36355	879.94666	713.60590	-132.44127	868.39429	853.48962	-148.32343	933.14789	535.24463	75.47601	438.45377	629.24341	-56.24267	489.05981	904.58551	-3.66602	107.44685	500.24673	-2.98033	182.97401	997.20544	
286	2.850	-37.26243	1372.79822	950.07642	-60.59161	1528.33667	689.07721	60.40543	1462.25403	786.59241	-151.74454	1414.56982	860.39417	151.19376	1257.85461	632.05359	-238.26276	1265.81494	802.40179	4.35429	1184.74512	819.88898	-88.06863	1321.64343	614.50604	249.37869	985.76959	577.84528	-333.24576	1018.88116	789.33136	365.58066	818.63715	702.45752	-333.73685	775.22510	914.34955	107.15556	878.07074	722.46368	-126.91431	866.44153	863.54321	-143.67488	930.91077	544.66760	80.84097	436.30887	636.25427	-50.14935	487.64957	914.86316	-2.62786	108.03733	500.65402	9.48945	189.80708	1014.40002	
287	2.860	-36.26942	1370.83679	960.73114	-56.45318	1526.74695	698.43024	63.84581	1460.39880	797.46844	-148.97804	1413.30542	870.34387	154.81200	1256.37048	640.76294	-235.05899	1263.55359	812.46979	8.60200	1183.54199	829.99579	-83.81749	1319.01587	625.16266	253.11607	984.53070	587.71301	-329.26468	1016.50854	797.51093	368.74338	818.17743	714.90112	-333.25226	772.09119	920.31323	111.19071	877.04523	732.25055	-121.20142	863.98596	873.55151	-139.34727	928.57098	554.52313	85.57861	435.56143	643.16058	-45.08807	485.69165	923.23627	-2.41277	108.07556	502.21783	18.03177	196.34363	1030.66150	
